<svg width="100" height="100" viewBox="0 0 100 100" fill="none" xmlns="http://www.w3.org/2000/svg">
<rect x="0.5" y="0.5" width="99" height="99" rx="49.5" fill="white"/>
<rect x="0.5" y="0.5" width="99" height="99" rx="49.5" stroke="black"/>
<g clip-path="url(#clip0_1894_4623)">
<path d="M67.3368 47.6529C67.1867 47.6052 67.0238 47.6191 66.8839 47.6914C66.7441 47.7638 66.6387 47.8888 66.591 48.0388C66.5433 48.1889 66.5571 48.3518 66.6295 48.4917C66.7019 48.6315 66.8269 48.7369 66.9769 48.7846C71.6177 50.263 73.6875 52.4682 73.6875 55.9381C73.6875 59.0244 70.8719 61.4196 69.1952 62.5738C69.1158 62.6284 69.0508 62.7014 69.0059 62.7866C68.961 62.8719 68.9375 62.9668 68.9375 63.0631V67.6029C67.5116 67.0622 66.2379 66.1842 65.2254 65.0438C65.157 64.9669 65.0699 64.9091 64.9725 64.876C64.875 64.8429 64.7707 64.8357 64.6696 64.855C64.3312 64.9204 63.9856 65.013 63.6353 65.1068C63.0297 65.2695 62.4051 65.4381 61.8125 65.4381C58.763 65.4381 56.6279 64.7826 54.4453 63.1783C54.3183 63.0849 54.1595 63.0458 54.0037 63.0695C53.848 63.0932 53.708 63.1778 53.6146 63.3048C53.5212 63.4317 53.4821 63.5905 53.5058 63.7463C53.5295 63.9021 53.6141 64.042 53.7411 64.1354C56.1481 65.9048 58.4863 66.6256 61.8125 66.6256C62.5618 66.6256 63.2648 66.4368 63.9441 66.2539C64.1554 66.1945 64.3652 66.1399 64.5734 66.09C66.7929 68.4342 69.3033 68.9674 69.4125 68.9887C69.4988 69.0062 69.5878 69.0043 69.6733 68.9832C69.7587 68.962 69.8384 68.9221 69.9065 68.8664C69.9747 68.8108 70.0297 68.7407 70.0675 68.6612C70.1053 68.5817 70.1249 68.4949 70.125 68.4069V63.373C73.1911 61.1868 74.875 58.5554 74.875 55.9381C74.875 51.9232 72.4798 49.2905 67.3368 47.6529Z" fill="black"/>
<path d="M64.1875 47.0312C64.1875 37.8923 55.8536 31 44.8039 31C33.6984 31 25 38.0431 25 47.0336C25 52.4237 28.8131 56.2854 32.125 58.6224V66.5027C32.1256 66.6016 32.1508 66.6988 32.1984 66.7855C32.2459 66.8723 32.3143 66.9458 32.3974 66.9995C32.4804 67.0532 32.5755 67.0855 32.6741 67.0933C32.7727 67.101 32.8717 67.0842 32.9622 67.0442C33.1356 66.967 37.1885 65.1252 40.656 61.3335C42.1582 61.6126 43.8575 61.8809 45.3989 61.8809C56.6362 61.8809 64.1875 55.9126 64.1875 47.0312ZM45.3977 60.6934C43.8421 60.6934 42.0739 60.3954 40.5491 60.1044C40.4481 60.0862 40.3441 60.094 40.2468 60.127C40.1496 60.16 40.0624 60.2172 39.9934 60.2932C37.559 63.0387 34.6983 64.7832 33.3125 65.5349V58.3125C33.3125 58.2162 33.289 58.1213 33.2441 58.036C33.1992 57.9508 33.1342 57.8778 33.0548 57.8232C29.9222 55.6679 26.1875 52.0484 26.1875 47.0336C26.1875 38.7081 34.3646 32.1875 44.8039 32.1875C55.1779 32.1875 63 38.5691 63 47.0312C63 55.2036 55.9261 60.6934 45.3977 60.6934Z" fill="black"/>
<path d="M44.5938 44.6562C43.2839 44.6562 42.2188 45.7214 42.2188 47.0312C42.2188 48.3411 43.2839 49.4062 44.5938 49.4062C45.9036 49.4062 46.9688 48.3411 46.9688 47.0312C46.9688 45.7214 45.9036 44.6562 44.5938 44.6562ZM44.5938 48.2188C44.288 48.2051 43.9993 48.074 43.7878 47.8528C43.5762 47.6316 43.4582 47.3373 43.4582 47.0312C43.4582 46.7252 43.5762 46.4309 43.7878 46.2097C43.9993 45.9885 44.288 45.8574 44.5938 45.8438C44.8995 45.8574 45.1882 45.9885 45.3997 46.2097C45.6113 46.4309 45.7293 46.7252 45.7293 47.0312C45.7293 47.3373 45.6113 47.6316 45.3997 47.8528C45.1882 48.074 44.8995 48.2051 44.5938 48.2188ZM52.9062 44.6562C51.5964 44.6562 50.5312 45.7214 50.5312 47.0312C50.5312 48.3411 51.5964 49.4062 52.9062 49.4062C54.2161 49.4062 55.2812 48.3411 55.2812 47.0312C55.2812 45.7214 54.2161 44.6562 52.9062 44.6562ZM52.9062 48.2188C52.6005 48.2051 52.3118 48.074 52.1003 47.8528C51.8887 47.6316 51.7707 47.3373 51.7707 47.0312C51.7707 46.7252 51.8887 46.4309 52.1003 46.2097C52.3118 45.9885 52.6005 45.8574 52.9062 45.8438C53.212 45.8574 53.5007 45.9885 53.7122 46.2097C53.9238 46.4309 54.0418 46.7252 54.0418 47.0312C54.0418 47.3373 53.9238 47.6316 53.7122 47.8528C53.5007 48.074 53.212 48.2051 52.9062 48.2188ZM36.2812 44.7691C34.9714 44.7691 33.9062 45.8343 33.9062 47.1441C33.9062 48.4539 34.9714 49.5191 36.2812 49.5191C37.5911 49.5191 38.6562 48.4539 38.6562 47.1441C38.6562 45.8343 37.5911 44.7691 36.2812 44.7691ZM36.2812 48.3316C35.9755 48.3179 35.6868 48.1868 35.4753 47.9656C35.2637 47.7444 35.1457 47.4501 35.1457 47.1441C35.1457 46.838 35.2637 46.5437 35.4753 46.3225C35.6868 46.1013 35.9755 45.9702 36.2812 45.9566C36.587 45.9702 36.8757 46.1013 37.0872 46.3225C37.2988 46.5437 37.4168 46.838 37.4168 47.1441C37.4168 47.4501 37.2988 47.7444 37.0872 47.9656C36.8757 48.1868 36.587 48.3179 36.2812 48.3316Z" fill="black"/>
</g>
<defs>
<clipPath id="clip0_1894_4623">
<rect width="49.875" height="38" fill="white" transform="translate(25 31)"/>
</clipPath>
</defs>
</svg>
