<svg width="80" height="80" viewBox="0 0 80 80" fill="none" xmlns="http://www.w3.org/2000/svg">
<mask id="path-1-inside-1_1894_6135" fill="white">
<path d="M5 13.334V18.334C5 32.1673 12.3667 44.2673 23.3333 51.0007V66.6673H73.3333V60.0006C73.3333 51.134 55.5667 46.6673 46.6667 46.6673H45.8333C30 46.6673 16.6667 33.334 16.6667 18.334V13.334M46.6667 13.334C43.1304 13.334 39.7391 14.7387 37.2386 17.2392C34.7381 19.7397 33.3333 23.1311 33.3333 26.6673C33.3333 30.2035 34.7381 33.5949 37.2386 36.0954C39.7391 38.5959 43.1304 40.0007 46.6667 40.0007C50.2029 40.0007 53.5943 38.5959 56.0948 36.0954C58.5952 33.5949 60 30.2035 60 26.6673C60 23.1311 58.5952 19.7397 56.0948 17.2392C53.5943 14.7387 50.2029 13.334 46.6667 13.334Z"/>
</mask>
<path d="M5 13.334V13.834H16.6667V13.334V12.834H5V13.334ZM23.3333 51.0007H24.3333V50.4412L23.8566 50.1485L23.3333 51.0007ZM23.3333 66.6673H22.3333V67.6673H23.3333V66.6673ZM73.3333 66.6673V67.6673H74.3333V66.6673H73.3333ZM46.6667 13.334V12.334V13.334ZM33.3333 26.6673H32.3333H33.3333ZM46.6667 40.0007V41.0007V40.0007ZM5 13.334H4V18.334H5H6V13.334H5ZM5 18.334H4C4 32.5317 11.5617 44.9466 22.8101 51.8528L23.3333 51.0007L23.8566 50.1485C13.1716 43.5881 6 31.803 6 18.334H5ZM23.3333 51.0007H22.3333V66.6673H23.3333H24.3333V51.0007H23.3333ZM23.3333 66.6673V67.6673H73.3333V66.6673V65.6673H23.3333V66.6673ZM73.3333 66.6673H74.3333V60.0006H73.3333H72.3333V66.6673H73.3333ZM73.3333 60.0006H74.3333C74.3333 57.4167 73.031 55.2273 71.0965 53.4418C69.1687 51.6626 66.5475 50.2176 63.7094 49.0807C58.0348 46.8074 51.2417 45.6673 46.6667 45.6673V46.6673V47.6673C50.9917 47.6673 57.5319 48.7605 62.9656 50.9373C65.6817 52.0253 68.0584 53.3595 69.74 54.9115C71.4148 56.4573 72.3333 58.1513 72.3333 60.0006H73.3333ZM46.6667 46.6673V45.6673H45.8333V46.6673V47.6673H46.6667V46.6673ZM45.8333 46.6673V45.6673C30.5335 45.6673 17.6667 32.7631 17.6667 18.334H16.6667H15.6667C15.6667 33.9048 29.4665 47.6673 45.8333 47.6673V46.6673ZM16.6667 18.334H17.6667V13.334H16.6667H15.6667V18.334H16.6667ZM46.6667 13.334V12.334C42.8652 12.334 39.2195 13.8441 36.5315 16.5321L37.2386 17.2392L37.9457 17.9463C40.2586 15.6334 43.3957 14.334 46.6667 14.334V13.334ZM37.2386 17.2392L36.5315 16.5321C33.8435 19.2201 32.3333 22.8659 32.3333 26.6673H33.3333H34.3333C34.3333 23.3963 35.6327 20.2593 37.9457 17.9463L37.2386 17.2392ZM33.3333 26.6673H32.3333C32.3333 30.4688 33.8435 34.1145 36.5315 36.8025L37.2386 36.0954L37.9457 35.3883C35.6327 33.0754 34.3333 29.9383 34.3333 26.6673H33.3333ZM37.2386 36.0954L36.5315 36.8025C39.2195 39.4905 42.8652 41.0007 46.6667 41.0007V40.0007V39.0007C43.3957 39.0007 40.2586 37.7013 37.9457 35.3883L37.2386 36.0954ZM46.6667 40.0007V41.0007C50.4681 41.0007 54.1138 39.4905 56.8019 36.8025L56.0948 36.0954L55.3876 35.3883C53.0747 37.7013 49.9377 39.0007 46.6667 39.0007V40.0007ZM56.0948 36.0954L56.8019 36.8025C59.4899 34.1145 61 30.4688 61 26.6673H60H59C59 29.9383 57.7006 33.0754 55.3876 35.3883L56.0948 36.0954ZM60 26.6673H61C61 22.8659 59.4899 19.2201 56.8019 16.5321L56.0948 17.2392L55.3876 17.9463C57.7006 20.2593 59 23.3963 59 26.6673H60ZM56.0948 17.2392L56.8019 16.5321C54.1138 13.8441 50.4681 12.334 46.6667 12.334V13.334V14.334C49.9377 14.334 53.0747 15.6334 55.3876 17.9463L56.0948 17.2392Z" fill="black" mask="url(#path-1-inside-1_1894_6135)"/>
</svg>
