<svg width="80" height="80" viewBox="0 0 80 80" fill="none" xmlns="http://www.w3.org/2000/svg">
<path d="M11.666 31.326C11.666 27.9093 11.666 26.1993 12.3427 24.8993C12.9117 23.8045 13.8045 22.9117 14.8993 22.3427C16.1993 21.666 17.9093 21.666 21.326 21.666H58.6727C62.0893 21.666 63.7994 21.666 65.0994 22.3427C66.1942 22.9117 67.087 23.8045 67.656 24.8993C68.3327 26.1993 68.3327 27.9093 68.3327 31.326V52.006C68.3327 55.4227 68.3327 57.1327 67.656 58.4327C67.087 59.5275 66.1942 60.4203 65.0994 60.9894C63.7994 61.666 62.0893 61.666 58.6727 61.666H21.326C17.9093 61.666 16.1993 61.666 14.8993 60.9894C13.8045 60.4203 12.9117 59.5275 12.3427 58.4327C11.666 57.1327 11.666 55.4227 11.666 52.006V31.326Z" stroke="black"/>
<path d="M11.666 35H68.3327" stroke="black" stroke-linecap="round"/>
<path d="M21.6667 53.3333C22.5871 53.3333 23.3333 52.5871 23.3333 51.6667C23.3333 50.7462 22.5871 50 21.6667 50C20.7462 50 20 50.7462 20 51.6667C20 52.5871 20.7462 53.3333 21.6667 53.3333Z" fill="black"/>
</svg>
