<svg width="80" height="80" viewBox="0 0 80 80" fill="none" xmlns="http://www.w3.org/2000/svg">
<mask id="path-1-inside-1_1894_6140" fill="white">
<path d="M40 3.30859C39.5625 3.30859 39.125 3.52422 38.7344 4.04453C38.3281 4.56328 38.0312 5.36797 38.0312 6.28516C38.0312 7.20234 38.3281 8.00703 38.7344 8.52578C39.125 9.04609 39.5625 9.26172 40 9.26172C40.4375 9.26172 40.875 9.04609 41.2656 8.52578C41.6719 8.00703 41.9688 7.20234 41.9688 6.28516C41.9688 5.36797 41.6719 4.56328 41.2656 4.04453C40.875 3.52422 40.4375 3.30859 40 3.30859ZM27.5 6.94141V9.45703L36.5625 13.832V21.0164L35.0938 32.8289H31.5C30.75 33.4695 29.7969 33.8758 28.75 33.8758C27.6562 33.8758 26.6562 33.4227 25.875 32.7352L16.25 30.3289V32.8445L25.3125 35.657V42.8445L23.8906 54.157H20.2969C19.5312 54.8289 18.5625 55.2508 17.5 55.2508C16.4062 55.2508 15.4219 54.7977 14.6562 54.1102L5 52.907V55.4383L14.0625 57.0008V64.1883L12.5 76.6883H15L16.875 65.7508H18.125L20 76.6883H22.5L20.9375 64.1883V57.0008L28.75 56.7352L36.5625 57.0008V64.1883L35 76.6883H37.5L39.375 65.7508H40.625L42.5 76.6883H45L43.4375 64.1883V57.0008L51.25 56.7352L59.0625 57.0008V64.1883L57.5 76.6883H60L61.875 65.7508H63.125L65 76.6883H67.5L65.9375 64.1883V57.0008L75 55.4383V52.907L65.3438 54.1258C64.5625 54.8133 63.5781 55.2508 62.5 55.2508C61.4375 55.2508 60.4688 54.8289 59.7031 54.157H56.1094L54.6875 42.8289V35.6414L63.75 32.8289V30.3133L54.1406 32.7195C53.3594 33.4383 52.3594 33.8914 51.25 33.8914C50.1875 33.8914 49.2188 33.4695 48.4531 32.8133H44.9062L43.4375 21.0164V13.832L52.5 9.45703V6.94141L42.9688 10.8242C42.1875 11.5758 41.1406 12.0742 40 12.0742C38.8281 12.0742 37.7812 11.557 36.9844 10.782L27.5 6.94141ZM39.375 22.5789H40.625L42.375 32.8133H38.75V32.8289H37.625L39.375 22.5789ZM28.75 25.1102C28.3125 25.1102 27.875 25.3289 27.4844 25.8602C27.0781 26.3758 26.7812 27.1727 26.7812 28.0945C26.7812 29.0164 27.0781 29.8133 27.4844 30.3289C27.875 30.8602 28.3125 31.0633 28.75 31.0633C29.1875 31.0633 29.625 30.8602 30.0156 30.3289C30.4219 29.8133 30.7188 29.0164 30.7188 28.0945C30.7188 27.1727 30.4219 26.3758 30.0156 25.8602C29.625 25.3289 29.1875 25.1102 28.75 25.1102ZM51.25 25.1258C50.8125 25.1258 50.375 25.3445 49.9844 25.8758C49.5781 26.3914 49.2812 27.1883 49.2812 28.1102C49.2812 29.032 49.5781 29.8289 49.9844 30.3445C50.375 30.8758 50.8125 31.0789 51.25 31.0789C51.6875 31.0789 52.125 30.8758 52.5156 30.3445C52.9219 29.8289 53.2188 29.032 53.2188 28.1102C53.2188 27.1883 52.9219 26.3914 52.5156 25.8758C52.125 25.3445 51.6875 25.1258 51.25 25.1258ZM40.2188 35.3758L47.8125 35.6414V42.8289L46.3906 54.1727H42.7812C42.0156 54.8289 41.0625 55.2508 40 55.2508C38.9375 55.2508 37.9844 54.8289 37.2188 54.1727H33.6094L32.1875 42.8445V35.657L40.2188 35.3758ZM50.625 44.3914H51.875L53.5469 54.157H50V54.1727H48.9531L50.625 44.3914ZM28.125 44.407H29.375L31.0469 54.1727H30V54.157H26.4531L28.125 44.407ZM17.5 46.4695C17.0625 46.4695 16.625 46.6883 16.2344 47.2195C15.8281 47.7352 15.5312 48.532 15.5312 49.4539C15.5312 50.3758 15.8281 51.1727 16.2344 51.6883C16.625 52.2195 17.0625 52.4383 17.5 52.4383C17.9375 52.4383 18.375 52.2195 18.7656 51.6883C19.1719 51.1727 19.4688 50.3758 19.4688 49.4539C19.4688 48.532 19.1719 47.7352 18.7656 47.2195C18.375 46.6883 17.9375 46.4695 17.5 46.4695ZM62.5 46.4695C62.0625 46.4695 61.625 46.6883 61.2344 47.2195C60.8281 47.7352 60.5312 48.532 60.5312 49.4539C60.5312 50.3758 60.8281 51.1727 61.2344 51.6883C61.625 52.2195 62.0625 52.4383 62.5 52.4383C62.9375 52.4383 63.375 52.2195 63.7656 51.6883C64.1719 51.1727 64.4688 50.3758 64.4688 49.4539C64.4688 48.532 64.1719 47.7352 63.7656 47.2195C63.375 46.6883 62.9375 46.4695 62.5 46.4695ZM40 46.4852C39.5625 46.4852 39.125 46.7039 38.7344 47.2195C38.3281 47.7352 38.0312 48.5477 38.0312 49.4695C38.0312 50.3758 38.3281 51.1883 38.7344 51.7039C39.125 52.2195 39.5625 52.4383 40 52.4383C40.4375 52.4383 40.875 52.2195 41.2656 51.7039C41.6719 51.1883 41.9688 50.3758 41.9688 49.4695C41.9688 48.5477 41.6719 47.7352 41.2656 47.2195C40.875 46.7039 40.4375 46.4852 40 46.4852Z"/>
</mask>
<path d="M40 3.30859C39.5625 3.30859 39.125 3.52422 38.7344 4.04453C38.3281 4.56328 38.0312 5.36797 38.0312 6.28516C38.0312 7.20234 38.3281 8.00703 38.7344 8.52578C39.125 9.04609 39.5625 9.26172 40 9.26172C40.4375 9.26172 40.875 9.04609 41.2656 8.52578C41.6719 8.00703 41.9688 7.20234 41.9688 6.28516C41.9688 5.36797 41.6719 4.56328 41.2656 4.04453C40.875 3.52422 40.4375 3.30859 40 3.30859ZM27.5 6.94141V9.45703L36.5625 13.832V21.0164L35.0938 32.8289H31.5C30.75 33.4695 29.7969 33.8758 28.75 33.8758C27.6562 33.8758 26.6562 33.4227 25.875 32.7352L16.25 30.3289V32.8445L25.3125 35.657V42.8445L23.8906 54.157H20.2969C19.5312 54.8289 18.5625 55.2508 17.5 55.2508C16.4062 55.2508 15.4219 54.7977 14.6562 54.1102L5 52.907V55.4383L14.0625 57.0008V64.1883L12.5 76.6883H15L16.875 65.7508H18.125L20 76.6883H22.5L20.9375 64.1883V57.0008L28.75 56.7352L36.5625 57.0008V64.1883L35 76.6883H37.5L39.375 65.7508H40.625L42.5 76.6883H45L43.4375 64.1883V57.0008L51.25 56.7352L59.0625 57.0008V64.1883L57.5 76.6883H60L61.875 65.7508H63.125L65 76.6883H67.5L65.9375 64.1883V57.0008L75 55.4383V52.907L65.3438 54.1258C64.5625 54.8133 63.5781 55.2508 62.5 55.2508C61.4375 55.2508 60.4688 54.8289 59.7031 54.157H56.1094L54.6875 42.8289V35.6414L63.75 32.8289V30.3133L54.1406 32.7195C53.3594 33.4383 52.3594 33.8914 51.25 33.8914C50.1875 33.8914 49.2188 33.4695 48.4531 32.8133H44.9062L43.4375 21.0164V13.832L52.5 9.45703V6.94141L42.9688 10.8242C42.1875 11.5758 41.1406 12.0742 40 12.0742C38.8281 12.0742 37.7812 11.557 36.9844 10.782L27.5 6.94141ZM39.375 22.5789H40.625L42.375 32.8133H38.75V32.8289H37.625L39.375 22.5789ZM28.75 25.1102C28.3125 25.1102 27.875 25.3289 27.4844 25.8602C27.0781 26.3758 26.7812 27.1727 26.7812 28.0945C26.7812 29.0164 27.0781 29.8133 27.4844 30.3289C27.875 30.8602 28.3125 31.0633 28.75 31.0633C29.1875 31.0633 29.625 30.8602 30.0156 30.3289C30.4219 29.8133 30.7188 29.0164 30.7188 28.0945C30.7188 27.1727 30.4219 26.3758 30.0156 25.8602C29.625 25.3289 29.1875 25.1102 28.75 25.1102ZM51.25 25.1258C50.8125 25.1258 50.375 25.3445 49.9844 25.8758C49.5781 26.3914 49.2812 27.1883 49.2812 28.1102C49.2812 29.032 49.5781 29.8289 49.9844 30.3445C50.375 30.8758 50.8125 31.0789 51.25 31.0789C51.6875 31.0789 52.125 30.8758 52.5156 30.3445C52.9219 29.8289 53.2188 29.032 53.2188 28.1102C53.2188 27.1883 52.9219 26.3914 52.5156 25.8758C52.125 25.3445 51.6875 25.1258 51.25 25.1258ZM40.2188 35.3758L47.8125 35.6414V42.8289L46.3906 54.1727H42.7812C42.0156 54.8289 41.0625 55.2508 40 55.2508C38.9375 55.2508 37.9844 54.8289 37.2188 54.1727H33.6094L32.1875 42.8445V35.657L40.2188 35.3758ZM50.625 44.3914H51.875L53.5469 54.157H50V54.1727H48.9531L50.625 44.3914ZM28.125 44.407H29.375L31.0469 54.1727H30V54.157H26.4531L28.125 44.407ZM17.5 46.4695C17.0625 46.4695 16.625 46.6883 16.2344 47.2195C15.8281 47.7352 15.5312 48.532 15.5312 49.4539C15.5312 50.3758 15.8281 51.1727 16.2344 51.6883C16.625 52.2195 17.0625 52.4383 17.5 52.4383C17.9375 52.4383 18.375 52.2195 18.7656 51.6883C19.1719 51.1727 19.4688 50.3758 19.4688 49.4539C19.4688 48.532 19.1719 47.7352 18.7656 47.2195C18.375 46.6883 17.9375 46.4695 17.5 46.4695ZM62.5 46.4695C62.0625 46.4695 61.625 46.6883 61.2344 47.2195C60.8281 47.7352 60.5312 48.532 60.5312 49.4539C60.5312 50.3758 60.8281 51.1727 61.2344 51.6883C61.625 52.2195 62.0625 52.4383 62.5 52.4383C62.9375 52.4383 63.375 52.2195 63.7656 51.6883C64.1719 51.1727 64.4688 50.3758 64.4688 49.4539C64.4688 48.532 64.1719 47.7352 63.7656 47.2195C63.375 46.6883 62.9375 46.4695 62.5 46.4695ZM40 46.4852C39.5625 46.4852 39.125 46.7039 38.7344 47.2195C38.3281 47.7352 38.0312 48.5477 38.0312 49.4695C38.0312 50.3758 38.3281 51.1883 38.7344 51.7039C39.125 52.2195 39.5625 52.4383 40 52.4383C40.4375 52.4383 40.875 52.2195 41.2656 51.7039C41.6719 51.1883 41.9688 50.3758 41.9688 49.4695C41.9688 48.5477 41.6719 47.7352 41.2656 47.2195C40.875 46.7039 40.4375 46.4852 40 46.4852Z" stroke="black" stroke-width="2" mask="url(#path-1-inside-1_1894_6140)"/>
</svg>
