<svg width="99" height="94" viewBox="0 0 99 94" fill="none" xmlns="http://www.w3.org/2000/svg">
<path fill-rule="evenodd" clip-rule="evenodd" d="M27.0381 57.8991L37.8389 41.3121L46.9039 55.006L50.7614 49.2198L52.1115 51.3414L48.8326 56.1632H57.319L47.0968 40.3477L43.2393 46.1339L41.8892 44.0123L43.2393 42.0836C40.9892 41.0549 36.9903 37.4161 38.9962 31.0899C39.7034 29.2897 42.3136 25.6895 47.0968 25.6895C51.88 25.6895 54.3616 29.2897 55.0045 31.0899C57.0104 37.879 53.0115 41.2478 50.7614 42.0836L53.0758 45.7481L56.1618 41.3121L66.9626 57.8991H27.0381ZM47.0968 35.333L49.797 40.3477C50.4399 40.2191 51.9957 39.4219 53.0758 37.2618C53.8473 35.333 53.6544 33.34 53.4616 32.6328C52.7907 28.7754 49.1541 27.8753 47.4825 27.811C45.811 27.6182 42.1207 28.2739 40.732 32.44C39.3433 36.606 42.4679 39.4477 44.2037 40.3477L47.0968 35.333ZM54.2331 47.6769L56.1618 44.9767L63.4909 56.1632H59.8263L54.2331 47.6769ZM30.5098 56.1632H45.1681L40.9249 49.4127L38.0318 54.2345H35.5245L39.7676 47.6769L37.8389 44.9767L30.5098 56.1632Z" fill="#E48C3F" stroke="white" stroke-width="0.192872" stroke-miterlimit="9.59865"/>
<path d="M23.3732 66.3848L24.7233 64.8418C19.9015 58.8628 13.1509 43.2787 24.7233 28.7747L23.3732 27.2317C21.5245 29.6306 20.0933 32.0188 19.0138 34.368L14.8868 32.6321L13.9224 34.7537L18.0985 36.5697C17.0972 39.2576 16.5394 41.8814 16.323 44.3973L1 46.9047L16.2961 49.0263C16.5099 51.9231 17.1402 54.6163 17.9987 57.0251L13.9224 58.6699L14.8868 60.9843L18.8871 59.2485C20.2295 62.271 21.8835 64.7178 23.3732 66.3848Z" fill="#40D885" stroke="white" stroke-width="0.192872" stroke-miterlimit="9.59865"/>
<path d="M75.6268 27.2305L74.2767 28.7734C79.0985 34.7525 85.8491 50.3365 74.2767 64.8405L75.6268 66.3835C77.4755 63.9846 78.9067 61.5965 79.9862 59.2472L84.1132 60.9831L85.0776 58.8615L80.9015 57.0455C81.9028 54.3577 82.4606 51.7339 82.677 49.2179L98 46.7106L82.7039 44.589C82.4901 41.6921 81.8598 38.999 81.0013 36.5902L85.0776 34.9454L84.1132 32.6309L80.1129 34.3667C78.7705 31.3442 77.1165 28.8975 75.6268 27.2305Z" fill="#40D885" stroke="white" stroke-width="0.192872" stroke-miterlimit="9.59865"/>
<path d="M27.6162 23.3732L29.1592 24.7233C35.1382 19.9015 50.7223 13.1509 65.2263 24.7233L66.7692 23.3732C64.3704 21.5245 61.9822 20.0933 59.633 19.0138L61.3688 14.8868L59.2472 13.9224L57.4312 18.0985C54.7434 17.0972 52.1196 16.5394 49.6036 16.323L47.0963 1L44.9747 16.2961C42.0779 16.5099 39.3847 17.1402 36.9759 17.9987L35.3311 13.9224L33.0166 14.8868L34.7525 18.8871C31.73 20.2295 29.2832 21.8835 27.6162 23.3732Z" fill="#40D885" stroke="white" stroke-width="0.192872" stroke-miterlimit="9.59865"/>
<path d="M66.7695 70.6268L65.2266 69.2767C59.2475 74.0985 43.6635 80.8491 29.1595 69.2767L27.6165 70.6268C30.0154 72.4755 32.4035 73.9067 34.7528 74.9862L33.0169 79.1132L35.1385 80.0776L36.9545 75.9015C39.6423 76.9028 42.2661 77.4606 44.7821 77.677L47.2894 93L49.411 77.7039C52.3079 77.4901 55.001 76.8598 57.4098 76.0013L59.0546 80.0776L61.3691 79.1132L59.6333 75.1129C62.6558 73.7705 65.1025 72.1165 66.7695 70.6268Z" fill="#40D885" stroke="white" stroke-width="0.192872" stroke-miterlimit="9.59865"/>
<path fill-rule="evenodd" clip-rule="evenodd" d="M23.1799 72.5575L21.444 70.8216L27.423 64.8426C22.0226 58.6064 14.462 42.7009 27.423 28.9684L21.2511 22.9894L22.987 21.4464L28.966 27.4254C34.5593 22.2822 49.5648 15.043 64.8402 27.2325L70.8193 21.4464L72.5551 22.9894L66.5761 28.9684C79.5371 43.3181 71.9765 58.8636 66.5761 64.8426L72.5551 70.8216L71.0121 72.3646L65.0331 66.3856C50.3748 79.3466 35.0094 71.9146 29.1589 66.5784L23.1799 72.5575ZM37.2595 69.4715C40.8598 71.0145 49.7576 73.1747 56.5467 69.4715H37.2595ZM60.2113 67.5428L33.5949 67.3499L31.2805 65.6141L62.7186 65.8069L60.2113 67.5428ZM65.0331 63.6854H29.1589L27.423 61.7566H66.5761L65.0331 63.6854ZM67.7333 59.8279H26.2658C23.437 55.649 19.4767 44.5524 26.2658 33.5973C33.0549 22.6422 45.8102 21.7035 51.3392 22.6036C55.1966 23.4394 63.8758 26.8082 67.7333 33.5973C74.5224 44.5524 70.5621 55.649 67.7333 59.8279Z" fill="#E48C3F"/>
<path d="M29.1589 66.5784L23.1799 72.5575L21.444 70.8216L27.423 64.8426M29.1589 66.5784L27.423 64.8426M29.1589 66.5784C35.0094 71.9146 50.3748 79.3466 65.0331 66.3856M27.423 64.8426C22.0226 58.6064 14.462 42.7009 27.423 28.9684M27.423 28.9684L21.2511 22.9894L22.987 21.4464L28.966 27.4254M27.423 28.9684L28.966 27.4254M28.966 27.4254C34.5593 22.2822 49.5648 15.043 64.8402 27.2325M64.8402 27.2325L70.8193 21.4464L72.5551 22.9894L66.5761 28.9684M64.8402 27.2325L66.5761 28.9684M66.5761 28.9684C79.5371 43.3181 71.9765 58.8636 66.5761 64.8426M66.5761 64.8426L72.5551 70.8216L71.0121 72.3646L65.0331 66.3856M66.5761 64.8426L65.0331 66.3856M26.2658 59.8279H67.7333C70.5621 55.649 74.5224 44.5524 67.7333 33.5973C63.8758 26.8082 55.1966 23.4394 51.3392 22.6036C45.8102 21.7035 33.0549 22.6422 26.2658 33.5973C19.4767 44.5524 23.437 55.649 26.2658 59.8279ZM37.2595 69.4715C40.8598 71.0145 49.7576 73.1747 56.5467 69.4715H37.2595ZM33.5949 67.3499L60.2113 67.5428L62.7186 65.8069L31.2805 65.6141L33.5949 67.3499ZM65.0331 63.6854H29.1589L27.423 61.7566H66.5761L65.0331 63.6854Z" stroke="white" stroke-width="0.192872" stroke-miterlimit="9.59865"/>
</svg>
