<svg width="80" height="80" viewBox="0 0 80 80" fill="none" xmlns="http://www.w3.org/2000/svg">
<path d="M48.3346 29.9993C48.3346 32.2095 47.4567 34.3291 45.8939 35.8919C44.3311 37.4547 42.2114 38.3327 40.0013 38.3327C37.7912 38.3327 35.6715 37.4547 34.1087 35.8919C32.5459 34.3291 31.668 32.2095 31.668 29.9993C31.668 27.7892 32.5459 25.6696 34.1087 24.1068C35.6715 22.544 37.7912 21.666 40.0013 21.666C42.2114 21.666 44.3311 22.544 45.8939 24.1068C47.4567 25.6696 48.3346 27.7892 48.3346 29.9993Z" stroke="black" stroke-width="1.5" stroke-linecap="round" stroke-linejoin="round"/>
<path d="M60.001 66.666C60.001 70.3493 51.0476 73.3327 40.001 73.3327C28.9543 73.3327 20.0009 70.3493 20.0009 66.666M44.1909 58.3127C43.065 59.3959 41.5634 60.001 40.001 60.001C38.4385 60.001 36.9369 59.3959 35.811 58.3127C25.5143 48.336 11.7176 37.1927 18.4443 21.0127C22.0876 12.2627 30.821 6.66602 40.001 6.66602C49.181 6.66602 57.9176 12.266 61.5576 21.0127C68.2776 37.1693 54.5143 48.3693 44.1909 58.3127Z" stroke="black" stroke-width="1.5" stroke-linecap="round" stroke-linejoin="round"/>
</svg>
