<svg width="80" height="80" viewBox="0 0 80 80" fill="none" xmlns="http://www.w3.org/2000/svg">
<path d="M19.748 20.2139C21.2102 19.2185 22.796 18.8587 24.5391 19.3174L24.5518 19.3213L24.5645 19.3232L27.916 20.0225L23.6357 42.3809L16.7617 41.043L16.7539 41.042L16.7451 41.04L16.4912 40.9873C15.9938 40.858 15.5598 40.5866 15.1934 40.1328L15.0156 39.8896C14.5531 39.1957 14.3769 38.4513 14.4619 37.6006L17.1562 24.3672L17.1572 24.3594L17.1592 24.3525C17.4701 22.5489 18.3299 21.2017 19.748 20.2139ZM43.333 3.83398C46.7568 3.83403 49.5 6.57715 49.5 10.001C49.4998 13.423 46.725 16.1669 43.333 16.167C39.9426 16.167 37.1662 13.3914 37.166 10.001C37.166 6.61045 39.9425 3.83398 43.333 3.83398ZM58.7334 41.5908L58.3311 41.5107C55.8879 41.0221 53.5855 40.1323 51.3955 38.8652L50.959 38.6064C48.6338 37.1982 46.6733 35.5638 45.0088 33.6709L44.3428 32.9131L44.1426 33.9014L42.0762 44.1348L42.0225 44.4004L42.2148 44.5898L49.5 51.7764V76.167H43.833V56.458L43.6836 56.3105L36.2168 48.9775L35.5781 48.3496L35.3789 49.2227L29.2344 76.167H23.042C23.1184 75.7818 23.2302 75.2191 23.3721 74.5039C23.6575 73.0648 24.0648 71.008 24.5547 68.5391C25.5344 63.601 26.8419 57.0122 28.1523 50.4102C29.4627 43.8084 30.7764 37.1932 31.7686 32.2012C32.2646 29.7051 32.6808 27.6144 32.9756 26.1348C33.123 25.3952 33.2394 24.8082 33.3213 24.3994C33.3622 24.195 33.3944 24.0347 33.417 23.9229C33.4282 23.8673 33.438 23.824 33.4443 23.793L33.4531 23.7461H33.4541C33.7999 22.2372 34.4744 21.1315 35.5713 20.4199L35.583 20.4131L35.5947 20.4043C36.758 19.5555 37.8905 19.167 39.0332 19.167C40.2526 19.167 41.3699 19.4475 42.3936 20.0059L42.4014 20.0107L42.4092 20.0146C43.4525 20.5363 44.2492 21.301 44.8359 22.2891L44.8418 22.2979L44.8467 22.3066L48.3701 27.7246C49.3048 29.459 50.5417 30.9857 52.0801 32.2461L52.3936 32.4961C54.0756 33.8004 55.994 34.7926 58.0771 35.4756L58.7334 35.6904V29.4004H62.833V76.167H58.7334V41.5908Z" stroke="black"/>
</svg>
